HIERARCHY
ROOT Hips
{
	OFFSET	0.00	0.00	0.00
	CHANNELS 6 Xposition Yposition Zposition Zrotation Xrotation Yrotation
	JOINT LeftUpLeg
	{
		OFFSET	 0.126116	-0.014019	-0.065224
		CHANNELS 3 Zrotation Xrotation Yrotation
		JOINT LeftLeg
		{
			OFFSET	 0.000000	 0.000000	 0.569914
			CHANNELS 3 Zrotation Xrotation Yrotation
			JOINT LeftFoot
			{
				OFFSET	 0.000000	 0.000000	 0.544423
				CHANNELS 3 Zrotation Xrotation Yrotation
				JOINT LeftToeBase
				{
					OFFSET	 0.000000	 0.000000	 0.207117
					CHANNELS 3 Zrotation Xrotation Yrotation
					End Site
					{
						OFFSET	 0.000000	 0.000000	 0.207117
					}
				}
			}
		}
	}
	JOINT RightUpLeg
	{
		OFFSET	-0.124023	-0.008373	-0.065224
		CHANNELS 3 Zrotation Xrotation Yrotation
		JOINT RightLeg
		{
			OFFSET	 0.000000	 0.000000	 0.570047
			CHANNELS 3 Zrotation Xrotation Yrotation
			JOINT RightFoot
			{
				OFFSET	 0.000000	 0.000000	 0.544354
				CHANNELS 3 Zrotation Xrotation Yrotation
				JOINT RightToeBase
				{
					OFFSET	 0.000000	 0.000000	 0.207540
					CHANNELS 3 Zrotation Xrotation Yrotation
					End Site
					{
						OFFSET	 0.000000	 0.000000	 0.207540
					}
				}
			}
		}
	}
	JOINT Spine
	{
		OFFSET	 0.000184	-0.007763	 0.117403
		CHANNELS 3 Zrotation Xrotation Yrotation
		JOINT Spine1
		{
			OFFSET	 0.000000	 0.000000	 0.137269
			CHANNELS 3 Zrotation Xrotation Yrotation
			JOINT Spine2
			{
				OFFSET	 0.000000	 0.000000	 0.156879
				CHANNELS 3 Zrotation Xrotation Yrotation
				JOINT LeftShoulder
				{
					OFFSET	 0.080501	-0.002496	 0.160144
					CHANNELS 3 Zrotation Xrotation Yrotation
					JOINT LeftArm
					{
						OFFSET	 0.000000	 0.000000	 0.164363
						CHANNELS 3 Zrotation Xrotation Yrotation
						JOINT LeftForeArm
						{
							OFFSET	 0.000000	 0.000000	 0.364576
							CHANNELS 3 Zrotation Xrotation Yrotation
							JOINT LeftHand
							{
								OFFSET	 0.000000	 0.000000	 0.360812
								CHANNELS 3 Zrotation Xrotation Yrotation
								JOINT LeftHandIndex1
								{
									OFFSET	 0.000000	 0.000000	 0.086006
									CHANNELS 3 Zrotation Xrotation Yrotation
									JOINT LeftHandIndex2
									{
										OFFSET	 0.000000	 0.000000	 0.047237
										CHANNELS 3 Zrotation Xrotation Yrotation
										JOINT LeftHandIndex3
										{
											OFFSET	-0.004284	-0.000551	 0.038165
											CHANNELS 3 Zrotation Xrotation Yrotation
											End Site
											{
												OFFSET	-0.004284	-0.000551	 0.038165
											}
										}
									}
								}
							}
						}
					}
				}
				JOINT Neck
				{
					OFFSET	 0.000000	 0.000000	 0.176489
					CHANNELS 3 Zrotation Xrotation Yrotation
					JOINT Head
					{
						OFFSET	 0.000000	-0.001747	 0.077940
						CHANNELS 3 Zrotation Xrotation Yrotation
						End Site
						{
							OFFSET	 0.000000	-0.001747	 0.077940
						}
					}
				}
				JOINT RightShoulder
				{
					OFFSET	-0.080363	 0.000306	 0.159706
					CHANNELS 3 Zrotation Xrotation Yrotation
					JOINT RightArm
					{
						OFFSET	 0.000000	 0.000000	 0.164196
						CHANNELS 3 Zrotation Xrotation Yrotation
						JOINT RightForeArm
						{
							OFFSET	 0.000000	 0.000000	 0.365611
							CHANNELS 3 Zrotation Xrotation Yrotation
							JOINT RightHand
							{
								OFFSET	 0.000000	 0.000000	 0.360648
								CHANNELS 3 Zrotation Xrotation Yrotation
								JOINT RightHandIndex1
								{
									OFFSET	 0.000000	 0.000000	 0.069977
									CHANNELS 3 Zrotation Xrotation Yrotation
									JOINT RightHandIndex2
									{
										OFFSET	 0.000000	 0.000000	 0.052305
										CHANNELS 3 Zrotation Xrotation Yrotation
										JOINT RightHandIndex3
										{
											OFFSET	 0.009002	-0.000782	 0.042196
											CHANNELS 3 Zrotation Xrotation Yrotation
											End Site
											{
												OFFSET	 0.009002	-0.000782	 0.042196
											}
										}
									}
								}
							}
						}
					}
				}
			}
		}
	}
}
MOTION
Frames:    12
Frame Time: 0.03333334
-0.718873	-0.006915	 1.267366	-176.024700	-6.921394	-0.377648	 19.175080	 0.651338	 172.312400	-6.874935	-21.414230	-3.063225	-24.188720	 73.970470	 19.127950	-2.385833	 28.452760	 0.000004	-15.917910	 4.496809	-173.966400	 3.543082	-19.291400	 1.244958	 19.114590	 75.166240	-15.392570	 2.384659	 28.388700	-0.000001	-2.053106	 7.188661	-2.289096	-1.120704	 8.105327	 7.723626	-9.474074	-7.143330	-9.408049	-91.776180	 78.527450	 180.000000	-6.153588	 44.363420	 25.682240	-17.558910	-5.627762	-81.588810	-2.314911	-11.117730	-2.439083	-4.130354	 21.526190	 0.991307	-5.167926	 0.731697	 3.519349	-1.378229	 35.397820	-2.634230	-8.836753	 0.752118	 4.520069	-6.925636	-16.293370	-6.259193	 89.782070	 78.203850	-180.000000	 7.990202	 30.459560	-15.770930	 11.604680	-3.890856	 85.714220	 34.370200	 21.257840	 8.738896	 5.716295	 19.173350	-3.684826	 5.027458	 0.246833	-9.377971	-2.350882	 35.473990	 5.254307
-0.718936	-0.007045	 1.266765	-176.034300	-6.938834	-0.352429	 19.132980	 0.332688	 172.011000	-6.950686	-22.503370	-3.240371	-26.686780	 74.526660	 21.743100	-2.385833	 28.452760	 0.000004	-15.782570	 4.701644	-173.874500	 3.507577	-19.779370	 1.263131	 20.474420	 75.704700	-16.756270	 2.384659	 28.388700	-0.000001	-2.523613	 7.285381	-2.321249	-1.591385	 7.225471	 7.523215	-9.292101	-6.517166	-9.138367	-91.776210	 78.527430	-180.000000	-5.523631	 50.474770	 24.674250	-17.557700	-5.714028	-81.703350	-2.325441	-11.078910	-2.449374	-4.130354	 21.526190	 0.991307	-5.167926	 0.731697	 3.519349	-1.378229	 35.397820	-2.634230	-8.760945	 0.684630	 4.516832	-6.860463	-16.068660	-6.271868	 89.782080	 78.203850	-180.000000	 3.147955	 35.184620	-13.790490	 11.779690	-4.162051	 88.398990	 30.142070	 17.670950	 11.587570	 5.716295	 19.173350	-3.684826	 5.027458	 0.246833	-9.377971	-2.350882	 35.473990	 5.254307
-0.718965	-0.007138	 1.266371	-176.043900	-6.950688	-0.282024	 19.077080	 0.106923	 171.755100	-6.991930	-23.237950	-3.356728	-28.486440	 74.932170	 23.600280	-2.385833	 28.452760	 0.000004	-15.707500	 4.887209	-173.862100	 3.478742	-20.045270	 1.269494	 21.529020	 76.012010	-17.819000	 2.384659	 28.388700	-0.000001	-2.836163	 7.378228	-2.430572	-1.915915	 6.567952	 7.411120	-9.162935	-6.031223	-8.949615	-91.776220	 78.527380	-180.000000	-4.645664	 54.460640	 23.173850	-17.462730	-5.763901	-80.850780	-2.299792	-11.031940	-2.457959	-4.130354	 21.526190	 0.991307	-5.167926	 0.731697	 3.519349	-1.378229	 35.397820	-2.634230	-8.718843	 0.671179	 4.549662	-6.818233	-15.910580	-6.382409	 89.782110	 78.203870	 180.000000	-0.505845	 38.322240	-11.672240	 11.861830	-4.403269	 89.557670	 27.036700	 15.301030	 13.448670	 5.716295	 19.173350	-3.684826	 5.027458	 0.246833	-9.377971	-2.350882	 35.473990	 5.254307
-0.718992	-0.007229	 1.265996	-176.053000	-6.958733	-0.213892	 19.022170	-0.099754	 171.506900	-7.031685	-23.921120	-3.465901	-30.293390	 75.297360	 25.462780	-2.385833	 28.452760	 0.000004	-15.634420	 5.073546	-173.850900	 3.450607	-20.285490	 1.274277	 22.583270	 76.298380	-18.880080	 2.384659	 28.388700	-0.000001	-3.141003	 7.469128	-2.531991	-2.231028	 5.924113	 7.284793	-9.039727	-5.558223	-8.758280	-91.776180	 78.527380	-180.000000	-3.365065	 58.125490	 20.991960	-17.295190	-5.796957	-79.292810	-2.275222	-10.986700	-2.466219	-4.130354	 21.526190	 0.991307	-5.167926	 0.731697	 3.519349	-1.378229	 35.397820	-2.634230	-8.678269	 0.658248	 4.581243	-6.777342	-15.758550	-6.489357	 89.782090	 78.203830	 180.000000	-4.400660	 41.245510	-8.980488	 11.908540	-4.634335	 90.159500	 23.931350	 13.030050	 15.262190	 5.716295	 19.173350	-3.684826	 5.027458	 0.246833	-9.377971	-2.350882	 35.473990	 5.254307
-0.719105	-0.007628	 1.264601	-176.081500	-6.943393	 0.074991	 18.831150	-0.862392	 170.496600	-7.185006	-26.424380	-3.872384	-37.937570	 76.471340	 33.329590	-2.385833	 28.452760	 0.000004	-15.311860	 5.868459	-173.842800	 3.338982	-21.081000	 1.281707	 27.118780	 77.360750	-23.428240	 2.384659	 28.388700	-0.000001	-4.388599	 7.887760	-2.902871	-3.509548	 3.185098	 6.572701	-8.543799	-3.584535	-7.879669	-91.776230	 78.527380	-179.999900	 7.725109	 69.672470	 2.709769	-15.817630	-5.584307	-65.230040	-2.181710	-10.820520	-2.496937	-4.130354	 21.526190	 0.991307	-5.167926	 0.731697	 3.519349	-1.378229	 35.397820	-2.634230	-8.477392	 0.569464	 4.650510	-6.592634	-15.109740	-6.820289	 89.782150	 78.203900	 180.000000	-23.628690	 50.654220	 8.273325	 11.646470	-5.547900	 87.431460	 11.333910	 4.242959	 22.705630	 5.716295	 19.173350	-3.684826	 5.027458	 0.246833	-9.377971	-2.350882	 35.473990	 5.254307
-0.720053	-0.008388	 1.263942	-176.218500	-6.107305	 0.437048	 19.403840	-2.638768	 169.370900	-7.355102	-29.431190	-4.359443	-45.736450	 77.202680	 41.365490	-2.385833	 28.452760	 0.000004	-14.240490	 6.106376	-174.099100	 3.241832	-22.093240	 1.303572	 34.722810	 79.041980	-31.016620	 2.384659	 28.388700	-0.000001	-6.241687	 8.749282	-3.157968	-5.505358	-3.065038	 4.556066	-7.442597	 0.969226	-5.875060	-91.776190	 78.527400	-180.000000	 20.564720	 71.715090	-42.645660	-12.010760	-0.056248	-0.535802	-2.152410	-10.892270	-2.484150	-4.130354	 21.526190	 0.991307	-5.167926	 0.731697	 3.519349	-1.378229	 35.397820	-2.634230	-7.503647	-0.156951	 3.877060	-5.964470	-13.213780	-5.909050	 89.782090	 78.203900	-180.000000	-53.292600	 53.457050	 41.600550	 9.964262	-6.762301	 74.041180	-3.791371	-6.008244	 31.649010	 5.716295	 19.173350	-3.684826	 5.027458	 0.246833	-9.377971	-2.350882	 35.473990	 5.254307
-0.722698	-0.008676	 1.267176	-176.888900	-5.112036	 0.118391	 20.980010	-3.585287	 170.298900	-7.646995	-29.133340	-4.464158	-42.480990	 77.442580	 38.133900	-2.385833	 28.452760	 0.000004	-13.161650	 4.309673	-173.968000	 3.148501	-22.725100	 1.302730	 34.547790	 79.206540	-30.742790	 2.384659	 28.388700	-0.000001	-5.902390	 9.361829	-2.982797	-5.754752	-7.057002	 4.325986	-6.828886	 4.638099	-5.159756	-91.776160	 78.527380	 180.000000	 20.305010	 71.052220	-34.091090	-12.845950	-1.570070	-15.806930	-2.125756	-11.077570	-2.433384	-4.130354	 21.526190	 0.991307	-5.167926	 0.731697	 3.519349	-1.378229	 35.397820	-2.634230	-6.937561	-0.406728	 3.558184	-5.582780	-11.574940	-5.903126	 89.782100	 78.203900	 180.000000	-49.919030	 51.847900	 35.381100	 11.467880	-8.070758	 86.992650	-4.223218	-0.125596	 23.631650	 5.716295	 19.173350	-3.684826	 5.027458	 0.246833	-9.377971	-2.350882	 35.473990	 5.254307
-0.724827	-0.011580	 1.270094	-177.702100	-4.316375	 0.752599	 21.677540	-4.777861	 170.232500	-8.105133	-29.150790	-4.694326	-44.847170	 78.794590	 40.524780	-2.385833	 28.452760	 0.000004	-12.000900	 3.117259	-174.889900	 2.862027	-22.870940	 1.198995	 33.153910	 78.888380	-29.084430	 2.384659	 28.388700	-0.000001	-5.284482	 10.520570	-4.010800	-5.960959	-10.873940	 3.885042	-6.379981	 8.502726	-4.229677	-91.776080	 78.527360	 179.999900	 20.063450	 70.090640	-29.038360	-13.726210	-2.246447	-25.719360	-1.803281	-11.067960	-2.389827	-4.130354	 21.526190	 0.991307	-5.167926	 0.731697	 3.519349	-1.378229	 35.397820	-2.634230	-6.342309	-0.764243	 2.722963	-5.227489	-9.458024	-4.393521	 89.782150	 78.203850	 180.000000	-46.354400	 50.367210	 31.507950	 12.817170	-9.082102	 95.870220	-4.067685	 5.325956	 16.575940	 5.716295	 19.173350	-3.684826	 5.027458	 0.246833	-9.377971	-2.350882	 35.473990	 5.254307
-0.727022	-0.019220	 1.272680	-177.919700	-3.020067	 0.983013	 22.591070	-6.681178	 170.487500	-8.378945	-29.293160	-4.852069	-42.980200	 78.833040	 38.749560	-2.385833	 28.452760	 0.000004	-11.408790	 0.969841	-175.552000	 2.712276	-23.801280	 1.184405	 32.777470	 79.510860	-28.473130	 2.384659	 28.388700	-0.000001	-5.634801	 12.027860	-4.617316	-6.447718	-15.502460	 2.719318	-5.984698	 12.901210	-2.794326	-91.776200	 78.527330	-180.000000	 21.406910	 68.887270	-31.628300	-14.621790	-1.790636	-25.453780	-1.782919	-11.240110	-2.317626	-4.130354	 21.526190	 0.991307	-5.167926	 0.731697	 3.519349	-1.378229	 35.397820	-2.634230	-5.634171	-0.026389	 2.076402	-4.802209	-8.388138	-3.586945	 89.782150	 78.203900	 179.999900	-47.542880	 48.104310	 34.172350	 13.472720	-9.634876	 99.412620	-5.980513	 8.253950	 11.940190	 5.716295	 19.173350	-3.684826	 5.027458	 0.246833	-9.377971	-2.350882	 35.473990	 5.254307
-0.730110	-0.030093	 1.275980	-178.638300	-1.284312	 0.383822	 24.163610	-8.995704	 172.266700	-8.586652	-29.321170	-4.960349	-38.936290	 79.163860	 34.602190	-2.385833	 28.452760	 0.000004	-10.254920	-2.443617	-175.226500	 2.690641	-25.016220	 1.231887	 30.054550	 79.510820	-25.609290	 2.384659	 28.388700	-0.000001	-5.263843	 13.511570	-4.685729	-6.612181	-19.616780	 2.090711	-5.805717	 16.928810	-1.875673	-91.776150	 78.527400	 180.000000	 24.028850	 67.852790	-35.338120	-15.721700	-1.464765	-28.833920	-1.708193	-11.251660	-2.228305	-4.130354	 21.526190	 0.991307	-5.167926	 0.731697	 3.519349	-1.378229	 35.397820	-2.634230	-5.192462	 0.614516	 1.785258	-4.525747	-7.511302	-2.939542	 89.782060	 78.203870	-180.000000	-46.779070	 46.133570	 36.559290	 13.441420	-9.828157	 99.075230	-6.820607	 9.951798	 8.887630	 5.716295	 19.173350	-3.684826	 5.027458	 0.246833	-9.377971	-2.350882	 35.473990	 5.254307
-0.735548	-0.047441	 1.278212	-179.173700	 0.911987	 0.346634	 25.670700	-12.568900	 173.995600	-8.693217	-29.896190	-5.102648	-34.067760	 79.287740	 29.545950	-2.385833	 28.452760	 0.000004	-9.261089	-6.350288	-175.527200	 2.682804	-25.731240	 1.261313	 22.956550	 79.159320	-18.156050	 2.384659	 28.388700	-0.000001	-4.979661	 15.625320	-5.262279	-7.181324	-22.144060	-0.867568	-6.141877	 19.149020	 0.292958	-91.776150	 78.527400	 180.000000	 26.757060	 67.359020	-39.668430	-16.518090	-1.249009	-33.808240	-1.729981	-11.276430	-2.158830	-4.130354	 21.526190	 0.991307	-5.167926	 0.731697	 3.519349	-1.378229	 35.397820	-2.634230	-4.724218	 0.187542	 1.507469	-4.244874	-6.438567	-1.678095	 89.782060	 78.203850	-180.000000	-43.879350	 43.820120	 39.285550	 12.829420	-9.707265	 95.635120	-8.079334	 11.276830	 7.589896	 5.716295	 19.173350	-3.684826	 5.027458	 0.246833	-9.377971	-2.350882	 35.473990	 5.254307
-0.745127	-0.071787	 1.277627	-179.621500	 3.275053	-0.214427	 27.356460	-16.384070	 177.049200	-8.718951	-30.881940	-5.267257	-28.496350	 79.826260	 23.549510	-2.385833	 28.452760	 0.000004	-8.088099	-11.815120	-174.740200	 2.829977	-27.833920	 1.425318	 18.463490	 78.814370	-13.451890	 2.384659	 28.388700	-0.000001	-4.709059	 18.583990	-5.579816	-7.801251	-21.460270	-5.118631	-6.688869	 18.072800	 3.027235	-91.776170	 78.527400	-180.000000	 30.493460	 66.644840	-44.399570	-17.327290	-0.923837	-41.112340	-1.789817	-10.992840	-2.083066	-4.130354	 21.526190	 0.991307	-5.167926	 0.731697	 3.519349	-1.378229	 35.397820	-2.634230	-4.328708	 0.127412	 1.121256	-4.069097	-6.991175	-0.488570	 89.782090	 78.203830	 180.000000	-39.610550	 41.630220	 42.899620	 11.744370	-9.844727	 89.252100	-10.665810	 11.375910	 8.763178	 5.716295	 19.173350	-3.684826	 5.027458	 0.246833	-9.377971	-2.350882	 35.473990	 5.254307
